<svg width="123" height="123" viewBox="0 0 123 123" fill="none" xmlns="http://www.w3.org/2000/svg">
<g clip-path="url(#clip0_196_3)">
<path d="M67.13 0V55.75H122.88V66.5H67.13V122.25H56.38V66.5H0.63V55.75H56.38V0H67.13ZM119.67 87.01L107.44 98.65L120.01 110.61L112.62 118.38L99.66 106.05L86.7 118.39L79.31 110.62L91.88 98.66L79.65 87.01L87.04 79.25L99.66 91.26L112.28 79.25L119.67 87.01ZM44.08 11.16L31.68 22.96L44.08 34.76L36.69 42.53L23.9 30.36L11.11 42.53L3.72 34.76L16.12 22.96L3.72 11.16L11.11 3.4L23.9 15.56L36.69 3.39L44.08 11.16ZM22.88 76.7C29.2 76.7 34.92 79.26 39.06 83.4C43.2 87.54 45.76 93.26 45.76 99.58C45.76 105.9 43.2 111.62 39.06 115.76C34.92 119.9 29.2 122.46 22.88 122.46C16.56 122.46 10.84 119.9 6.7 115.76C2.56 111.61 0 105.89 0 99.58C0 93.26 2.56 87.54 6.7 83.4C10.84 79.26 16.56 76.7 22.88 76.7ZM31.46 91C29.27 88.81 26.23 87.45 22.88 87.45C19.53 87.45 16.49 88.81 14.3 91C12.11 93.19 10.75 96.23 10.75 99.58C10.75 102.93 12.11 105.97 14.3 108.16C16.49 110.35 19.53 111.71 22.88 111.71C26.23 111.71 29.26 110.35 31.46 108.16C33.65 105.96 35.01 102.93 35.01 99.58C35.01 96.23 33.65 93.19 31.46 91ZM99.49 0.08C105.81 0.08 111.53 2.64 115.67 6.78C119.81 10.92 122.37 16.64 122.37 22.96C122.37 29.28 119.81 35 115.67 39.14C111.53 43.28 105.81 45.84 99.49 45.84C93.17 45.84 87.45 43.28 83.31 39.14C79.17 35 76.61 29.28 76.61 22.96C76.61 16.64 79.17 10.92 83.31 6.78C87.46 2.65 93.18 0.08 99.49 0.08ZM108.07 14.38C105.87 12.19 102.84 10.83 99.49 10.83C96.14 10.83 93.11 12.19 90.91 14.38C88.71 16.57 87.36 19.61 87.36 22.96C87.36 26.31 88.72 29.34 90.91 31.54C93.1 33.73 96.14 35.09 99.49 35.09C102.84 35.09 105.87 33.73 108.07 31.54C110.26 29.34 111.62 26.31 111.62 22.96C111.62 19.61 110.27 16.58 108.07 14.38Z" fill="#FF0062"/>
</g>
<defs>
<clipPath id="clip0_196_3">
<rect width="122.88" height="122.45" fill="white"/>
</clipPath>
</defs>
</svg>
